<svg width="32" height="26" viewBox="0 0 32 26" fill="none" xmlns="http://www.w3.org/2000/svg">
<g clip-path="url(#clip0_298_46984)">
<path d="M8.63135 1.28784C8.83168 1.04072 9.08499 0.841782 9.37255 0.705733C9.66011 0.569684 9.97457 0.500002 10.2927 0.501838H21.2731C21.6261 0.501838 21.9884 0.479505 22.3277 0.59055C22.6324 0.682319 22.9125 0.841499 23.1473 1.05628C23.382 1.27107 23.5654 1.53595 23.6839 1.83128C23.8476 2.29221 23.9146 2.78106 24.0344 3.25439C22.5753 3.27611 21.1156 3.25005 19.6558 3.26122C15.7568 3.25563 11.8572 3.26866 7.95825 3.25688C8.14312 2.58998 8.16669 1.8381 8.63135 1.28784Z" fill="#FD9540"/>
<path d="M7.96123 3.25639C11.8602 3.26817 15.7598 3.25639 19.6588 3.26073C21.1185 3.24956 22.5783 3.27562 24.0373 3.25391C24.1217 3.62612 24.2036 3.99834 24.2886 4.36498C25.3079 4.36498 26.3277 4.36498 27.347 4.36498C28.4979 4.38358 29.6 4.83292 30.4358 5.62432C30.2998 5.65609 30.1614 5.67684 30.022 5.68635C20.9022 5.67932 11.7829 5.67932 2.66394 5.68635C2.29793 5.68635 1.92633 5.71861 1.56714 5.6299C2.40011 4.83905 3.49885 4.38849 4.64725 4.36684C5.66961 4.36188 6.69445 4.36684 7.71371 4.36684C7.7956 3.99586 7.8781 3.62571 7.96123 3.25639Z" fill="#FD8641"/>
<path d="M0.195068 8.13853C0.37317 7.17698 0.852953 6.29715 1.56483 5.62668C1.92402 5.71539 2.29562 5.68065 2.66164 5.68313C11.7818 5.68313 20.9012 5.68313 30.0197 5.68313C30.1591 5.67361 30.2974 5.65287 30.4335 5.62109C31.147 6.29518 31.627 7.1792 31.8039 8.14473C26.7628 8.16583 21.7217 8.14474 16.6812 8.15466C16.5671 8.16397 16.4554 8.18692 16.3425 8.20553C16.1111 8.20181 15.8804 8.20181 15.649 8.20553C15.0906 8.10751 14.5156 8.1863 13.9492 8.15466C12.8958 8.16211 11.8424 8.16211 10.789 8.15466C9.98255 8.16459 9.17236 8.17079 8.36402 8.15466C5.80192 8.17948 3.2392 8.15032 0.677091 8.16397C0.517658 8.16148 0.356363 8.1497 0.195068 8.13853Z" fill="#FE7A41"/>
<path d="M0.118652 8.73422C0.137884 8.53508 0.160837 8.33595 0.194957 8.13867C0.356252 8.14984 0.517546 8.16225 0.679462 8.16659C3.24157 8.15294 5.80429 8.1821 8.36639 8.15728C9.17287 8.17341 9.98306 8.16721 10.7914 8.15728C11.8448 8.16514 12.8982 8.16514 13.9515 8.15728C14.5179 8.18892 15.0899 8.11013 15.6513 8.20815C13.5644 8.30803 11.5606 9.42965 10.3919 11.1617C10.112 11.1334 9.83058 11.1236 9.54943 11.1325C6.40604 11.1474 3.26204 11.1208 0.119893 11.1388L0.118652 8.73422Z" fill="#FE6C42"/>
<path d="M16.3447 8.21021C16.4576 8.1916 16.5693 8.16865 16.6834 8.15934C21.7239 8.14879 26.765 8.17051 31.8061 8.14941C31.8371 8.33552 31.86 8.52722 31.8811 8.71705V10.0161C30.1441 10.0409 28.4071 10.0161 26.6701 10.0273C24.9126 10.0235 23.1551 10.0273 21.397 10.0211C21.1445 10.0211 20.8926 10.0254 20.6407 10.0347C19.4681 8.93995 17.9468 8.29389 16.3447 8.21021Z" fill="#FE6F42"/>
<path d="M20.6392 10.0352C20.891 10.0259 21.1429 10.0191 21.3954 10.0216C23.1529 10.029 24.9104 10.0216 26.6685 10.0278C28.4055 10.0154 30.1425 10.0414 31.8795 10.0166V12.6984C30.0588 12.673 28.238 12.6984 26.4172 12.6866C25.0748 12.6866 23.7323 12.6817 22.3892 12.6935C22.0239 11.6816 21.4242 10.7707 20.6392 10.0352Z" fill="#FE6343"/>
<path d="M12.75 12.1035C13.3109 11.473 14.043 11.0191 14.8571 10.797C15.6713 10.5749 16.5324 10.5943 17.3358 10.8526C18.1392 11.111 18.8502 11.5973 19.3822 12.2523C19.9143 12.9073 20.2445 13.7029 20.3327 14.5422C17.4443 14.5492 14.5559 14.5492 11.6675 14.5422C11.7648 13.6362 12.1433 12.7834 12.75 12.1035Z" fill="#FE5A44"/>
<path d="M0.118672 11.1393C3.26206 11.1213 6.40606 11.148 9.54821 11.1331C9.82936 11.1242 10.1108 11.1339 10.3907 11.1622C9.80909 12.011 9.42888 12.9813 9.27897 13.9992C9.05688 13.9898 8.83541 13.983 8.61332 13.9836C5.78136 13.9985 2.94939 13.9762 0.117432 13.9905L0.118672 11.1393Z" fill="#FE5C43"/>
<path d="M22.3896 12.6937C23.7327 12.6819 25.0752 12.6862 26.4177 12.6868C28.2384 12.6992 30.0592 12.6732 31.88 12.6986V15.1025C28.8501 15.1174 25.8196 15.1106 22.7898 15.1069C22.8029 14.2849 22.6674 13.4674 22.3896 12.6937Z" fill="#FE5544"/>
<path d="M0.118652 13.9932C2.95061 13.9789 5.78258 14.0012 8.61764 13.9863C8.83973 13.9863 9.0612 13.9925 9.28329 14.0018C9.18527 14.6699 9.18527 15.3487 9.28329 16.0168C9.14433 16.0261 9.00537 16.0373 8.86579 16.041C5.95008 16.0341 3.03436 16.041 0.118652 16.041V13.9932Z" fill="#FE4F44"/>
<path d="M11.6674 14.542C14.5558 14.5482 17.4442 14.5482 20.3326 14.542C20.4258 15.4746 20.2182 16.4126 19.7402 17.2189C18.1409 17.2077 16.5422 17.2189 14.9429 17.2189C14.049 17.2238 13.1544 17.2034 12.2611 17.2325C11.779 16.4229 11.5708 15.4793 11.6674 14.542Z" fill="#FE4B45"/>
<path d="M22.7911 15.1098C25.8209 15.1135 28.8514 15.1204 31.8813 15.1055V17.6018C28.9451 17.5875 26.0089 17.6074 23.0721 17.595C22.8107 17.6017 22.5491 17.5938 22.2886 17.5714C22.607 16.7891 22.7774 15.9544 22.7911 15.1098Z" fill="#FE4845"/>
<path d="M0.11856 16.0398C3.03427 16.0398 5.94998 16.0342 8.86569 16.0398C9.00528 16.0361 9.14424 16.0249 9.2832 16.0156C9.38442 16.685 9.58516 17.3355 9.87875 17.9456C9.39611 17.9834 8.91222 17.9567 8.42958 17.9611C5.65903 17.9661 2.88911 17.9611 0.116699 17.9611L0.11856 16.0398Z" fill="#FE4545"/>
<path d="M12.2612 17.2278C13.1546 17.1987 14.0491 17.2192 14.9431 17.2142C16.5424 17.2173 18.141 17.2055 19.7403 17.2142C19.3548 17.8617 18.8078 18.3981 18.1529 18.771C17.498 19.1439 16.7576 19.3405 16.004 19.3417C15.2503 19.3428 14.5093 19.1484 13.8533 18.7774C13.1973 18.4065 12.6487 17.8717 12.2612 17.2254V17.2278Z" fill="#FE3F45"/>
<path d="M20.4292 20.1503C21.2435 19.4476 21.8811 18.5631 22.2903 17.5684C22.5502 17.5905 22.8112 17.5982 23.072 17.5913C26.0081 17.6037 28.9443 17.5839 31.8811 17.5981V20.1882C30.3922 20.2179 28.9034 20.1956 27.4182 20.2018C25.5143 20.1981 23.6098 20.2055 21.7053 20.2018C21.2797 20.1807 20.8479 20.2514 20.4292 20.1503Z" fill="#FE3A46"/>
<path d="M0.118652 17.9628C2.8892 17.9591 5.65912 17.9628 8.43153 17.9628C8.91418 17.9584 9.39806 17.9851 9.8807 17.9473C10.2523 18.7148 10.7639 19.4062 11.3894 19.9858C11.0874 20.0208 10.7832 20.0326 10.4794 20.0211C7.02641 20.0174 3.57305 20.0174 0.119273 20.0211L0.118652 17.9628Z" fill="#FE3A46"/>
<path d="M0.118652 20.0168C3.5716 20.0168 7.02496 20.0168 10.4787 20.0168C10.7825 20.0283 11.0868 20.0165 11.3888 19.9814C12.6135 21.1127 14.2112 21.7547 15.8782 21.7852C17.5452 21.8157 19.1653 21.2328 20.4306 20.1471C20.8494 20.2482 21.2811 20.1775 21.7067 20.1973C23.6112 20.2029 25.5157 20.1973 27.4196 20.1973C28.9085 20.1911 30.3974 20.2135 31.8825 20.1837V21.2383C31.843 21.8697 31.6797 22.4871 31.4018 23.0553C29.8887 23.0299 28.375 23.064 26.8619 23.0411C25.1032 23.0584 23.3438 23.0299 21.5845 23.0454C15.5465 23.0529 9.5091 23.0374 3.46986 23.0454C2.51326 23.0535 1.55604 23.0212 0.599435 23.0541C0.317118 22.4804 0.153587 21.8556 0.118652 21.2172L0.118652 20.0168Z" fill="#FF2B47"/>
<path d="M0.598877 23.0609C1.55548 23.028 2.5127 23.0609 3.4693 23.0522C9.50793 23.0422 15.5453 23.0578 21.5839 23.0522C23.3433 23.0367 25.1026 23.0652 26.8614 23.0478C28.3744 23.0708 29.8881 23.0367 31.4012 23.0621C31.0953 23.6756 30.6569 24.2135 30.1176 24.6369C29.5784 25.0602 28.9518 25.3585 28.2832 25.5101C27.6734 25.6577 27.0425 25.623 26.4222 25.6267C19.2259 25.6267 12.0297 25.6267 4.83348 25.6267C3.95718 25.6436 3.09408 25.4114 2.34449 24.9572C1.59489 24.503 0.989572 23.8454 0.598877 23.0609Z" fill="#FF1E47"/>
</g>
<defs>
<clipPath id="clip0_298_46984">
<rect width="31.7626" height="25.1272" fill="white" transform="translate(0.118652 0.5)"/>
</clipPath>
</defs>
</svg>
