<svg width="22" height="22" viewBox="0 0 22 22" fill="none" xmlns="http://www.w3.org/2000/svg">
<path fill-rule="evenodd" clip-rule="evenodd" d="M0.580706 10.16C0.11828 10.6224 0.11828 11.3772 0.580706 11.8396L9.63859 20.8972C10.1017 21.3603 10.8551 21.3603 11.3182 20.8972L11.8249 20.3905C12.2884 19.9269 12.2885 19.174 11.8249 18.7103L4.95374 11.8398C4.49008 11.3762 4.49008 10.6231 4.95374 10.1595L11.8249 3.28896C12.2885 2.82536 12.2885 2.07243 11.8248 1.60883L11.3182 1.10217C10.8557 0.639743 10.101 0.639743 9.63854 1.10217L0.580706 10.16ZM19.2323 1.10207C19.6952 0.639129 20.4493 0.63918 20.9122 1.10207L21.4188 1.60873C21.8815 2.07141 21.8816 2.82618 21.4188 3.28891L14.548 10.1595C14.0844 10.6231 14.0844 11.3762 14.548 11.8398L21.4189 18.7104C21.8818 19.1732 21.8817 19.9277 21.4189 20.3906L20.9122 20.8972C20.4491 21.3603 19.6954 21.3604 19.2323 20.8972L10.979 12.6436C8.66388 14.9565 9.2495 14.37 10.9773 12.642L10.175 11.8396C9.71228 11.3768 9.71233 10.6226 10.175 10.1599L19.2323 1.10207Z" fill="#878D96"/>
</svg>
