<svg width="78" height="77" viewBox="0 0 78 77" fill="none" xmlns="http://www.w3.org/2000/svg">
<g clip-path="url(#clip0_264_32983)">
<path d="M38.5985 0H39.4061C45.7676 0.0451172 52.1201 0.80459 58.2696 2.41527C62.8023 3.77631 66.705 6.72998 69.8421 10.21C72.4514 13.1697 74.596 16.6678 75.4201 20.5644C76.7445 26.163 77.4421 31.8915 77.5 37.6443V39.3557C77.4427 45.0377 76.7619 50.6962 75.4697 56.2295C74.4982 60.9413 71.6874 65.08 68.2931 68.4037C66.0899 70.5497 63.5603 72.386 60.7555 73.6673C58.5463 74.7005 56.1265 75.1246 53.7563 75.6134C49.3619 76.4811 44.8833 76.8902 40.4137 77.006H37.6134C32.0406 76.903 26.4948 76.2047 21.0704 74.9231C17.1723 74.102 13.6772 71.9499 10.716 69.3436C7.239 66.2095 4.29285 62.3098 2.9258 57.7876C1.3467 51.769 0.584219 45.5578 0.5 39.3482V37.9345C0.534685 31.6233 1.34638 25.3403 2.91678 19.2274C4.10938 15.2451 6.56074 11.738 9.48133 8.82191C12.7283 5.6201 16.7181 2.97322 21.2389 2.04381C26.9297 0.70973 32.7533 0.0240959 38.5985 0ZM32.8069 14.8887C32.6709 15.3136 32.6311 15.7634 32.6904 16.2056C32.7497 16.6478 32.9066 17.0713 33.1498 17.4453L33.1648 17.4288C33.4018 17.7759 33.7113 18.0674 34.072 18.2832C34.4326 18.499 34.8359 18.6339 35.2538 18.6785C35.7816 18.7191 36.3065 18.6936 36.8389 18.6966C37.7924 18.6966 38.7458 18.6966 39.6963 18.6966C40.6468 18.6966 41.6303 18.7116 42.5973 18.6966C43.2321 18.6621 43.8379 18.42 44.3216 18.0075C44.8053 17.595 45.14 17.035 45.2743 16.4136C45.3702 15.9468 45.3528 15.4638 45.2236 15.0051C45.0943 14.5464 44.8569 14.1253 44.5314 13.7773C43.9847 13.2424 43.2593 12.929 42.4951 12.8975H37.5472C36.8299 12.8975 36.111 12.8795 35.3936 12.908C34.8141 12.9425 34.2581 13.1495 33.7971 13.5024C33.3362 13.8554 32.9913 14.3382 32.8069 14.8887ZM33.4942 21.5795C31.0368 21.6999 28.5849 21.8934 26.1386 22.1601C24.746 22.2683 23.3654 22.4744 21.9818 22.6654C21.1922 22.8158 20.3365 22.8624 19.6613 23.3451C19.2339 23.6386 18.8932 24.0414 18.6747 24.5115C18.4561 24.9816 18.3679 25.5017 18.419 26.0176C18.4736 26.5431 18.6691 27.0441 18.985 27.4676C19.3008 27.8912 19.7251 28.2216 20.2132 28.4238C21.3231 28.875 22.4691 28.3637 23.5925 28.299C23.4331 29.5909 23.2812 30.8857 23.203 32.1866C23.0751 33.7522 22.9383 35.3177 22.8661 36.8878C22.7969 38.2413 22.7247 39.5948 22.7337 40.9484C22.7052 42.9034 22.7623 44.8585 22.8646 46.8136C22.9398 48.0739 22.9999 49.3356 23.1037 50.5944C23.215 52.1344 23.3488 53.6744 23.5549 55.2039C23.8 56.9334 24.6257 58.5365 25.7386 59.866C27.0545 61.4255 28.793 62.7099 30.8007 63.1896C35.4225 64.2223 40.1974 64.3753 44.8758 63.6408C46.2819 63.3836 47.7332 63.1896 49.0145 62.5053C51.1672 61.3546 52.8699 59.5127 53.8481 57.2763C54.4496 55.9107 54.5293 54.3978 54.6933 52.9345C55.1444 47.7821 55.4347 42.5996 55.1535 37.4292C54.988 34.3778 54.7609 31.3264 54.4015 28.29C55.0377 28.3637 55.6648 28.487 56.2964 28.5908C57.0351 28.6685 57.7755 28.4595 58.3646 28.0071C58.9538 27.5547 59.3467 26.8934 59.4623 26.1596C59.5779 25.4259 59.4073 24.6758 58.9858 24.0642C58.5643 23.4525 57.9241 23.0261 57.1973 22.8729C55.4753 22.536 53.7278 22.3586 51.9862 22.157C50.6327 22.0067 49.2672 21.9089 47.9076 21.7916C46.0097 21.6412 44.1088 21.551 42.2063 21.4803C40.91 21.4201 39.6121 21.4231 38.3142 21.4277C36.708 21.4216 35.1004 21.5059 33.4942 21.5826V21.5795Z" fill="#FFE5E5"/>
<path d="M42.25 46.6837C44.3284 44.8279 46.1602 42.7059 48.2355 40.8516C48.2521 42.9074 48.2491 44.9632 48.1919 47.0176C46.3241 48.7877 44.5404 50.645 42.7102 52.4542C42.4597 52.0573 42.3214 51.6 42.3102 51.1308C42.2545 49.6479 42.253 48.1651 42.25 46.6837Z" fill="#FFE5E5"/>
<path d="M32.8096 14.8884C32.9936 14.3381 33.3379 13.8553 33.7983 13.5021C34.2586 13.1489 34.8141 12.9414 35.3933 12.9063C36.1107 12.8777 36.8296 12.8973 37.5469 12.8958C36.1693 14.4869 34.5541 15.8524 33.1615 17.43L33.1465 17.4466C32.9041 17.0719 32.7481 16.6479 32.6898 16.2055C32.6315 15.763 32.6725 15.3131 32.8096 14.8884Z" fill="#F55A5A"/>
<path d="M37.5573 12.8984H42.5051C40.7004 14.9092 38.6431 16.6853 36.8459 18.705C36.318 18.705 35.7932 18.7276 35.2608 18.687C34.8429 18.6423 34.4397 18.5074 34.079 18.2917C33.7183 18.0759 33.4088 17.7844 33.1719 17.4372C34.5645 15.8551 36.1797 14.4896 37.5573 12.8984Z" fill="#F34D4E"/>
<path d="M42.4999 12.8906C43.2641 12.9221 43.9896 13.2355 44.5362 13.7704C42.9571 15.4458 41.2276 16.9767 39.7012 18.6957C38.7477 18.6957 37.7942 18.6957 36.8438 18.6957C38.6379 16.6775 40.6922 14.9013 42.4999 12.8906Z" fill="#F03E40"/>
<path d="M44.5382 13.7734C44.8638 14.1215 45.1011 14.5425 45.2304 15.0012C45.3597 15.4599 45.3771 15.943 45.2811 16.4098C45.1469 17.0311 44.8121 17.5912 44.3284 18.0037C43.8448 18.4161 43.2389 18.6583 42.6042 18.6927C41.6371 18.7138 40.6701 18.6927 39.7031 18.6927C41.2326 16.9798 42.9591 15.4488 44.5382 13.7734Z" fill="#EF3739"/>
<path d="M33.4875 21.581C35.0937 21.4998 36.7013 21.4201 38.309 21.4306C37.7766 22.0984 37.142 22.6714 36.5449 23.2789C32.4342 27.3896 28.3266 31.4973 24.2219 35.6019C23.7843 36.0531 23.3331 36.4892 22.8594 36.8998C22.9316 35.3297 23.0684 33.7642 23.1963 32.1986C23.5512 31.5248 24.1302 31.018 24.6641 30.4932C27.3546 27.8207 30.021 25.1137 32.716 22.4488C32.9882 22.1736 33.2393 21.8773 33.4875 21.581Z" fill="#F86565"/>
<path d="M38.3129 21.4258C39.6108 21.4258 40.9086 21.4258 42.205 21.4784C40.5507 23.2515 38.7896 24.9254 37.0917 26.6519C32.7805 30.9631 28.4693 35.2743 24.1581 39.5855C23.707 40.0577 23.2377 40.5209 22.743 40.9525C22.7339 39.599 22.8061 38.2455 22.8753 36.892C23.349 36.4814 23.8002 36.0438 24.2378 35.5941C28.3485 31.4834 32.4562 27.3757 36.5608 23.2711C37.1459 22.6665 37.7805 22.0935 38.3129 21.4258Z" fill="#F55A5A"/>
<path d="M42.2113 21.4805C44.1137 21.5512 46.0147 21.6309 47.9126 21.7918C46.9802 22.8325 45.9575 23.7845 44.974 24.7785C41.7706 27.9869 38.5653 31.1952 35.358 34.4035C34.8452 34.9013 34.3338 35.3991 33.8631 35.939C33.1226 35.8254 32.3688 35.83 31.6298 35.9526C31.1677 36.0462 30.747 36.2832 30.4275 36.63C30.1081 36.9767 29.9062 37.4154 29.8507 37.8836C29.783 38.6205 29.8026 39.3604 29.7785 40.1003C28.8355 40.7997 28.0806 41.708 27.2339 42.5141C25.7706 43.9398 24.3765 45.4452 22.8726 46.8198C22.7703 44.8647 22.7131 42.9096 22.7417 40.9546C23.2365 40.5229 23.7027 40.0522 24.1569 39.5875C28.4681 35.2763 32.7793 30.9651 37.0905 26.6539C38.7959 24.9274 40.5555 23.2536 42.2113 21.4805Z" fill="#F34D4E"/>
<path d="M26.1441 22.1625C28.5895 21.8918 31.0414 21.6983 33.4997 21.582C33.2516 21.8828 33.0004 22.1746 32.7282 22.4498C30.0332 25.1147 27.3668 27.8217 24.6763 30.4897C24.1424 31.0145 23.5634 31.5213 23.2085 32.1951C23.2867 30.8942 23.4386 29.5994 23.598 28.3075C22.4701 28.3722 21.3286 28.8835 20.2188 28.4323C20.4413 27.8503 20.9466 27.4653 21.3722 27.0412C22.3317 26.0938 23.2822 25.1373 24.2297 24.1838C24.8824 23.5206 25.5862 22.9085 26.1441 22.1625Z" fill="#FA7373"/>
<path d="M47.9089 21.793C49.2624 21.9103 50.6294 22.014 51.9875 22.1584C51.4476 22.9104 50.7317 23.5119 50.0895 24.1706C46.2516 28.0036 42.4161 31.8391 38.5831 35.677C37.6146 36.6335 36.6777 37.6216 35.6731 38.5345C35.7814 37.3734 35.0445 36.1598 33.8594 35.9357C34.3301 35.3958 34.8414 34.898 35.3543 34.4002C38.5546 31.1859 41.7599 27.9775 44.9702 24.7752C45.9523 23.7856 46.9704 22.8337 47.9089 21.793Z" fill="#F03E40"/>
<path d="M21.9786 22.6694C23.3622 22.4784 24.7428 22.2723 26.1354 22.1641C25.5775 22.916 24.8737 23.5176 24.2255 24.1838C23.2735 25.1388 22.323 26.0953 21.3681 27.0412C20.9424 27.4653 20.4371 27.8503 20.2146 28.4323C19.7265 28.2301 19.3021 27.8997 18.9863 27.4761C18.6705 27.0526 18.475 26.5516 18.4204 26.0261C18.3692 25.5102 18.4575 24.9901 18.676 24.52C18.8945 24.0499 19.2353 23.6471 19.6626 23.3537C20.3334 22.8604 21.1891 22.8153 21.9786 22.6694Z" fill="#FD8383"/>
<path d="M51.9844 22.1562C53.7259 22.3578 55.4734 22.5352 57.1954 22.8721C57.5714 22.9308 57.9322 23.0629 58.2572 23.261C58.5822 23.4591 58.8649 23.7193 59.0893 24.0266C59.3138 24.334 59.4754 24.6826 59.5652 25.0524C59.6549 25.4223 59.6708 25.8062 59.6122 26.1822C59.5535 26.5582 59.4214 26.919 59.2233 27.244C59.0252 27.569 58.765 27.8517 58.4577 28.0761C58.1503 28.3006 57.8017 28.4622 57.4319 28.5519C57.062 28.6417 56.6781 28.6576 56.3021 28.599C55.6705 28.4937 55.0433 28.3704 54.4072 28.2982C54.7651 31.3346 54.9922 34.386 55.1591 37.4374C55.4404 42.6079 55.1501 47.7903 54.6989 52.9427C54.535 54.406 54.4598 55.9189 53.8537 57.2845C52.8755 59.5209 51.1729 61.3629 49.0202 62.5136C47.7449 63.2054 46.2876 63.3919 44.8814 63.649C40.203 64.3835 35.4281 64.2305 30.8064 63.1979C28.7987 62.7181 27.0601 61.4338 25.7442 59.8742C24.6313 58.5448 23.8057 56.9416 23.5605 55.2121C23.347 53.6826 23.2131 52.1426 23.1094 50.6026C23.938 49.977 24.6133 49.1784 25.3547 48.4626C26.4691 47.3226 27.6241 46.2233 28.731 45.0758C29.0543 44.7489 29.4001 44.4448 29.7657 44.1659C29.8018 46.4639 29.8258 48.7634 29.9491 51.0583C29.9756 51.5219 30.1332 51.9683 30.4038 52.3456C30.6743 52.723 31.0466 53.0156 31.4771 53.1894C32.2669 53.398 33.0912 53.441 33.8984 53.3157C34.3561 53.2326 34.7751 53.0049 35.0937 52.6659C35.4124 52.327 35.6138 51.8948 35.6685 51.4328C35.7377 50.6703 35.7166 49.9018 35.7317 49.1348C35.7728 45.6057 35.7522 42.075 35.67 38.5428C36.6746 37.6239 37.6115 36.6359 38.5801 35.6854C42.421 31.8564 46.2565 28.021 50.0864 24.179C50.7271 23.5068 51.4445 22.9097 51.9844 22.1562ZM43.8843 36.0132C43.457 36.1581 43.0825 36.427 42.8087 36.7857C42.5349 37.1444 42.3743 37.5765 42.3473 38.027C42.2737 39.6557 42.2782 41.2874 42.2556 42.9177C42.2315 44.1734 42.2406 45.4292 42.2451 46.685C42.2451 48.1663 42.2451 49.6492 42.2992 51.129C42.3115 51.6003 42.4518 52.0594 42.7053 52.457C43.4497 53.5022 44.8664 53.4631 46.0033 53.3067C46.5397 53.2293 47.0338 52.9719 47.4046 52.5768C47.7754 52.1816 48.0009 51.6722 48.0441 51.132C48.1329 49.765 48.1614 48.3919 48.187 47.0218C48.2442 44.966 48.2472 42.9102 48.2306 40.8558C48.166 39.6662 48.3239 38.4496 48.0186 37.2825L47.999 37.2991C47.8463 36.9352 47.6016 36.6173 47.2889 36.3766C46.9762 36.1358 46.6062 35.9806 46.2154 35.926C45.4402 35.8008 44.648 35.8304 43.8843 36.0132Z" fill="#EF3739"/>
<path d="M31.632 35.9548C32.371 35.8323 33.1248 35.8277 33.8653 35.9413C35.0504 36.1654 35.7873 37.379 35.679 38.54C35.7632 42.0702 35.7838 45.6009 35.7406 49.1321C34.2262 50.3818 33.0156 51.9594 31.4861 53.1926C31.0536 53.0201 30.6794 52.7278 30.4071 52.3501C30.1349 51.9724 29.976 51.5249 29.9491 51.0601C29.8258 48.7651 29.7987 46.4656 29.7656 44.1677C29.7762 42.8141 29.7551 41.4606 29.7807 40.1071C29.8047 39.3672 29.7807 38.6273 29.8529 37.8904C29.9075 37.4214 30.109 36.9816 30.4285 36.634C30.748 36.2864 31.1692 36.0487 31.632 35.9548Z" fill="white"/>
<path d="M43.8865 36.015C44.6506 35.832 45.4435 35.8023 46.2191 35.9278C46.6094 35.9823 46.9788 36.1372 47.2912 36.3774C47.6036 36.6175 47.8482 36.9347 48.0012 37.2978C46.0281 39.11 44.2415 41.1147 42.2578 42.9194C42.2804 41.2892 42.2759 39.6575 42.3495 38.0287C42.3765 37.5783 42.5371 37.1461 42.8109 36.7874C43.0847 36.4287 43.4592 36.1598 43.8865 36.015Z" fill="#FFFBFB"/>
<path d="M48.0077 37.2978L48.0273 37.2812C48.3281 38.4438 48.1777 39.6649 48.2393 40.8545C46.1594 42.7088 44.3292 44.8309 42.2538 46.6867C42.2538 45.4309 42.2403 44.1752 42.2643 42.9194C44.245 41.1147 46.0346 39.11 48.0077 37.2978Z" fill="#FFF1F1"/>
<path d="M27.2252 42.5153C28.0719 41.7092 28.8269 40.8009 29.7698 40.1016C29.7443 41.4551 29.7698 42.8086 29.7548 44.1621C29.3892 44.441 29.0435 44.745 28.7201 45.072C27.6132 46.2195 26.4642 47.3188 25.3438 48.4588C24.5919 49.1746 23.9271 49.9732 23.0985 50.5988C22.9947 49.3401 22.9346 48.0783 22.8594 46.818C24.3738 45.4464 25.7604 43.941 27.2252 42.5153Z" fill="#F13F41"/>
<path d="M42.7031 52.4562C44.5334 50.6515 46.3125 48.7896 48.1849 47.0195C48.1593 48.3896 48.1307 49.7627 48.042 51.1297C47.9991 51.6701 47.7737 52.1799 47.4029 52.5754C47.032 52.9708 46.5378 53.2284 46.0012 53.3059C44.8597 53.4623 43.4476 53.5014 42.7031 52.4562Z" fill="#FFD9D9"/>
<path d="M31.4844 53.1895C33.0138 51.9578 34.2245 50.3802 35.7389 49.1289C35.7239 49.8959 35.7389 50.6644 35.6758 51.4269C35.622 51.8897 35.421 52.3229 35.1022 52.6627C34.7835 53.0026 34.3641 53.231 33.9057 53.3143C33.0986 53.44 32.2742 53.3975 31.4844 53.1895Z" fill="#FFF4F4"/>
</g>
<defs>
<clipPath id="clip0_264_32983">
<rect width="77" height="77" fill="white" transform="translate(0.5)"/>
</clipPath>
</defs>
</svg>
